<?xml version="1.0" encoding="UTF-8" standalone="no"?>
<!DOCTYPE svg PUBLIC "-//W3C//DTD SVG 1.1//EN"
 "http://www.w3.org/Graphics/SVG/1.1/DTD/svg11.dtd">
<!-- Generated by graphviz version 2.43.0 (0)
 -->
<!-- Title: snakemake_dag Pages: 1 -->
<svg width="337pt" height="692pt"
 viewBox="0.00 0.00 337.00 692.00" xmlns="http://www.w3.org/2000/svg" xmlns:xlink="http://www.w3.org/1999/xlink">
<g id="graph0" class="graph" transform="scale(1 1) rotate(0) translate(4 688)">
<title>snakemake_dag</title>
<polygon fill="white" stroke="transparent" points="-4,4 -4,-688 333,-688 333,4 -4,4"/>
<!-- 0 -->
<g id="node1" class="node">
<title>0</title>
<path fill="none" stroke="#c6d856" stroke-width="2" d="M177.5,-36C177.5,-36 124.5,-36 124.5,-36 118.5,-36 112.5,-30 112.5,-24 112.5,-24 112.5,-12 112.5,-12 112.5,-6 118.5,0 124.5,0 124.5,0 177.5,0 177.5,0 183.5,0 189.5,-6 189.5,-12 189.5,-12 189.5,-24 189.5,-24 189.5,-30 183.5,-36 177.5,-36"/>
<text text-anchor="middle" x="151" y="-15.5" font-family="sans" font-size="10.00">all_evaluate</text>
</g>
<!-- 1 -->
<g id="node2" class="node">
<title>1</title>
<path fill="none" stroke="#567bd8" stroke-width="2" d="M176,-108C176,-108 126,-108 126,-108 120,-108 114,-102 114,-96 114,-96 114,-84 114,-84 114,-78 120,-72 126,-72 126,-72 176,-72 176,-72 182,-72 188,-78 188,-84 188,-84 188,-96 188,-96 188,-102 182,-108 176,-108"/>
<text text-anchor="middle" x="151" y="-87.5" font-family="sans" font-size="10.00">concat_dice</text>
</g>
<!-- 1&#45;&gt;0 -->
<g id="edge1" class="edge">
<title>1&#45;&gt;0</title>
<path fill="none" stroke="grey" stroke-width="2" d="M151,-71.7C151,-63.98 151,-54.71 151,-46.11"/>
<polygon fill="grey" stroke="grey" stroke-width="2" points="154.5,-46.1 151,-36.1 147.5,-46.1 154.5,-46.1"/>
</g>
<!-- 2 -->
<g id="node3" class="node">
<title>2</title>
<path fill="none" stroke="#56d87b" stroke-width="2" d="M170,-180C170,-180 132,-180 132,-180 126,-180 120,-174 120,-168 120,-168 120,-156 120,-156 120,-150 126,-144 132,-144 132,-144 170,-144 170,-144 176,-144 182,-150 182,-156 182,-156 182,-168 182,-168 182,-174 176,-180 170,-180"/>
<text text-anchor="middle" x="151" y="-159.5" font-family="sans" font-size="10.00">calc_dice</text>
</g>
<!-- 2&#45;&gt;1 -->
<g id="edge2" class="edge">
<title>2&#45;&gt;1</title>
<path fill="none" stroke="grey" stroke-width="2" d="M151,-143.7C151,-135.98 151,-126.71 151,-118.11"/>
<polygon fill="grey" stroke="grey" stroke-width="2" points="154.5,-118.1 151,-108.1 147.5,-118.1 154.5,-118.1"/>
</g>
<!-- 3 -->
<g id="node4" class="node">
<title>3</title>
<path fill="none" stroke="#59d856" stroke-width="2" d="M134,-252C134,-252 46,-252 46,-252 40,-252 34,-246 34,-240 34,-240 34,-228 34,-228 34,-222 40,-216 46,-216 46,-216 134,-216 134,-216 140,-216 146,-222 146,-228 146,-228 146,-240 146,-240 146,-246 140,-252 134,-252"/>
<text text-anchor="middle" x="90" y="-231.5" font-family="sans" font-size="10.00">split_manual_mask</text>
</g>
<!-- 3&#45;&gt;2 -->
<g id="edge4" class="edge">
<title>3&#45;&gt;2</title>
<path fill="none" stroke="grey" stroke-width="2" d="M105.08,-215.7C112.39,-207.3 121.31,-197.07 129.34,-187.86"/>
<polygon fill="grey" stroke="grey" stroke-width="2" points="132.16,-189.94 136.09,-180.1 126.89,-185.34 132.16,-189.94"/>
</g>
<!-- 4 -->
<g id="node5" class="node">
<title>4</title>
<path fill="none" stroke="#78d856" stroke-width="2" d="M134,-324C134,-324 12,-324 12,-324 6,-324 0,-318 0,-312 0,-312 0,-300 0,-300 0,-294 6,-288 12,-288 12,-288 134,-288 134,-288 140,-288 146,-294 146,-300 146,-300 146,-312 146,-312 146,-318 140,-324 134,-324"/>
<text text-anchor="middle" x="73" y="-303.5" font-family="sans" font-size="10.00">cleanorient_manual_mask</text>
</g>
<!-- 4&#45;&gt;3 -->
<g id="edge5" class="edge">
<title>4&#45;&gt;3</title>
<path fill="none" stroke="grey" stroke-width="2" d="M77.2,-287.7C79.1,-279.9 81.38,-270.51 83.48,-261.83"/>
<polygon fill="grey" stroke="grey" stroke-width="2" points="86.89,-262.65 85.85,-252.1 80.08,-261 86.89,-262.65"/>
</g>
<!-- 5 -->
<g id="node6" class="node">
<title>5</title>
<path fill="none" stroke="#d85656" stroke-width="2" d="M257.5,-252C257.5,-252 184.5,-252 184.5,-252 178.5,-252 172.5,-246 172.5,-240 172.5,-240 172.5,-228 172.5,-228 172.5,-222 178.5,-216 184.5,-216 184.5,-216 257.5,-216 257.5,-216 263.5,-216 269.5,-222 269.5,-228 269.5,-228 269.5,-240 269.5,-240 269.5,-246 263.5,-252 257.5,-252"/>
<text text-anchor="middle" x="221" y="-231.5" font-family="sans" font-size="10.00">split_unet_mask</text>
</g>
<!-- 5&#45;&gt;2 -->
<g id="edge3" class="edge">
<title>5&#45;&gt;2</title>
<path fill="none" stroke="grey" stroke-width="2" d="M203.7,-215.7C195.14,-207.14 184.66,-196.66 175.3,-187.3"/>
<polygon fill="grey" stroke="grey" stroke-width="2" points="177.65,-184.7 168.1,-180.1 172.7,-189.65 177.65,-184.7"/>
</g>
<!-- 6 -->
<g id="node7" class="node">
<title>6</title>
<path fill="none" stroke="#56c9d8" stroke-width="2" d="M283.5,-324C283.5,-324 176.5,-324 176.5,-324 170.5,-324 164.5,-318 164.5,-312 164.5,-312 164.5,-300 164.5,-300 164.5,-294 170.5,-288 176.5,-288 176.5,-288 283.5,-288 283.5,-288 289.5,-288 295.5,-294 295.5,-300 295.5,-300 295.5,-312 295.5,-312 295.5,-318 289.5,-324 283.5,-324"/>
<text text-anchor="middle" x="230" y="-303.5" font-family="sans" font-size="10.00">cleanorient_unet_mask</text>
</g>
<!-- 6&#45;&gt;5 -->
<g id="edge6" class="edge">
<title>6&#45;&gt;5</title>
<path fill="none" stroke="grey" stroke-width="2" d="M227.78,-287.7C226.78,-279.98 225.59,-270.71 224.49,-262.11"/>
<polygon fill="grey" stroke="grey" stroke-width="2" points="227.95,-261.58 223.2,-252.1 221,-262.47 227.95,-261.58"/>
</g>
<!-- 7 -->
<g id="node8" class="node">
<title>7</title>
<path fill="none" stroke="#9fd856" stroke-width="2" d="M252.5,-396C252.5,-396 207.5,-396 207.5,-396 201.5,-396 195.5,-390 195.5,-384 195.5,-384 195.5,-372 195.5,-372 195.5,-366 201.5,-360 207.5,-360 207.5,-360 252.5,-360 252.5,-360 258.5,-360 264.5,-366 264.5,-372 264.5,-372 264.5,-384 264.5,-384 264.5,-390 258.5,-396 252.5,-396"/>
<text text-anchor="middle" x="230" y="-375.5" font-family="sans" font-size="10.00">unconform</text>
</g>
<!-- 7&#45;&gt;6 -->
<g id="edge7" class="edge">
<title>7&#45;&gt;6</title>
<path fill="none" stroke="grey" stroke-width="2" d="M230,-359.7C230,-351.98 230,-342.71 230,-334.11"/>
<polygon fill="grey" stroke="grey" stroke-width="2" points="233.5,-334.1 230,-324.1 226.5,-334.1 233.5,-334.1"/>
</g>
<!-- 8 -->
<g id="node9" class="node">
<title>8</title>
<path fill="none" stroke="#56d8a2" stroke-width="2" d="M258,-468C258,-468 202,-468 202,-468 196,-468 190,-462 190,-456 190,-456 190,-444 190,-444 190,-438 196,-432 202,-432 202,-432 258,-432 258,-432 264,-432 270,-438 270,-444 270,-444 270,-456 270,-456 270,-462 264,-468 258,-468"/>
<text text-anchor="middle" x="230" y="-447.5" font-family="sans" font-size="10.00">merge_mask</text>
</g>
<!-- 8&#45;&gt;7 -->
<g id="edge8" class="edge">
<title>8&#45;&gt;7</title>
<path fill="none" stroke="grey" stroke-width="2" d="M230,-431.7C230,-423.98 230,-414.71 230,-406.11"/>
<polygon fill="grey" stroke="grey" stroke-width="2" points="233.5,-406.1 230,-396.1 226.5,-406.1 233.5,-406.1"/>
</g>
<!-- 9 -->
<g id="node10" class="node">
<title>9</title>
<path fill="none" stroke="#d87d56" stroke-width="2" d="M259.5,-540C259.5,-540 200.5,-540 200.5,-540 194.5,-540 188.5,-534 188.5,-528 188.5,-528 188.5,-516 188.5,-516 188.5,-510 194.5,-504 200.5,-504 200.5,-504 259.5,-504 259.5,-504 265.5,-504 271.5,-510 271.5,-516 271.5,-516 271.5,-528 271.5,-528 271.5,-534 265.5,-540 259.5,-540"/>
<text text-anchor="middle" x="230" y="-519.5" font-family="sans" font-size="10.00">run_inference</text>
</g>
<!-- 9&#45;&gt;8 -->
<g id="edge9" class="edge">
<title>9&#45;&gt;8</title>
<path fill="none" stroke="grey" stroke-width="2" d="M230,-503.7C230,-495.98 230,-486.71 230,-478.11"/>
<polygon fill="grey" stroke="grey" stroke-width="2" points="233.5,-478.1 230,-468.1 226.5,-478.1 233.5,-478.1"/>
</g>
<!-- 10 -->
<g id="node11" class="node">
<title>10</title>
<path fill="none" stroke="#d8a456" stroke-width="2" d="M198.5,-612C198.5,-612 165.5,-612 165.5,-612 159.5,-612 153.5,-606 153.5,-600 153.5,-600 153.5,-588 153.5,-588 153.5,-582 159.5,-576 165.5,-576 165.5,-576 198.5,-576 198.5,-576 204.5,-576 210.5,-582 210.5,-588 210.5,-588 210.5,-600 210.5,-600 210.5,-606 204.5,-612 198.5,-612"/>
<text text-anchor="middle" x="182" y="-591.5" font-family="sans" font-size="10.00">conform</text>
</g>
<!-- 10&#45;&gt;9 -->
<g id="edge11" class="edge">
<title>10&#45;&gt;9</title>
<path fill="none" stroke="grey" stroke-width="2" d="M193.87,-575.7C199.5,-567.47 206.35,-557.48 212.57,-548.42"/>
<polygon fill="grey" stroke="grey" stroke-width="2" points="215.5,-550.33 218.27,-540.1 209.73,-546.37 215.5,-550.33"/>
</g>
<!-- 11 -->
<g id="node12" class="node">
<title>11</title>
<path fill="none" stroke="#56a2d8" stroke-width="2" d="M197,-684C197,-684 167,-684 167,-684 161,-684 155,-678 155,-672 155,-672 155,-660 155,-660 155,-654 161,-648 167,-648 167,-648 197,-648 197,-648 203,-648 209,-654 209,-660 209,-660 209,-672 209,-672 209,-678 203,-684 197,-684"/>
<text text-anchor="middle" x="182" y="-663.5" font-family="sans" font-size="10.00">split</text>
</g>
<!-- 11&#45;&gt;10 -->
<g id="edge12" class="edge">
<title>11&#45;&gt;10</title>
<path fill="none" stroke="grey" stroke-width="2" d="M182,-647.7C182,-639.98 182,-630.71 182,-622.11"/>
<polygon fill="grey" stroke="grey" stroke-width="2" points="185.5,-622.1 182,-612.1 178.5,-622.1 185.5,-622.1"/>
</g>
<!-- 12 -->
<g id="node13" class="node">
<title>12</title>
<path fill="none" stroke="#d8c356" stroke-width="2" d="M317,-612C317,-612 241,-612 241,-612 235,-612 229,-606 229,-600 229,-600 229,-588 229,-588 229,-582 235,-576 241,-576 241,-576 317,-576 317,-576 323,-576 329,-582 329,-588 329,-588 329,-600 329,-600 329,-606 323,-612 317,-612"/>
<text text-anchor="middle" x="279" y="-591.5" font-family="sans" font-size="10.00">download_model</text>
</g>
<!-- 12&#45;&gt;9 -->
<g id="edge10" class="edge">
<title>12&#45;&gt;9</title>
<path fill="none" stroke="grey" stroke-width="2" d="M266.89,-575.7C261.13,-567.47 254.14,-557.48 247.79,-548.42"/>
<polygon fill="grey" stroke="grey" stroke-width="2" points="250.58,-546.29 241.97,-540.1 244.84,-550.3 250.58,-546.29"/>
</g>
</g>
</svg>
