<?xml version="1.0" encoding="UTF-8" standalone="no"?>
<!DOCTYPE svg PUBLIC "-//W3C//DTD SVG 1.1//EN"
 "http://www.w3.org/Graphics/SVG/1.1/DTD/svg11.dtd">
<!-- Generated by graphviz version 2.43.0 (0)
 -->
<!-- Title: snakemake_dag Pages: 1 -->
<svg width="280pt" height="476pt"
 viewBox="0.00 0.00 280.00 476.00" xmlns="http://www.w3.org/2000/svg" xmlns:xlink="http://www.w3.org/1999/xlink">
<g id="graph0" class="graph" transform="scale(1 1) rotate(0) translate(4 472)">
<title>snakemake_dag</title>
<polygon fill="white" stroke="transparent" points="-4,4 -4,-472 276,-472 276,4 -4,4"/>
<!-- 0 -->
<g id="node1" class="node">
<title>0</title>
<path fill="none" stroke="#56d882" stroke-width="2" d="M150,-36C150,-36 118,-36 118,-36 112,-36 106,-30 106,-24 106,-24 106,-12 106,-12 106,-6 112,0 118,0 118,0 150,0 150,0 156,0 162,-6 162,-12 162,-12 162,-24 162,-24 162,-30 156,-36 150,-36"/>
<text text-anchor="middle" x="134" y="-15.5" font-family="sans" font-size="10.00">all_train</text>
</g>
<!-- 1 -->
<g id="node2" class="node">
<title>1</title>
<path fill="none" stroke="#d85656" stroke-width="2" d="M153.5,-108C153.5,-108 114.5,-108 114.5,-108 108.5,-108 102.5,-102 102.5,-96 102.5,-96 102.5,-84 102.5,-84 102.5,-78 108.5,-72 114.5,-72 114.5,-72 153.5,-72 153.5,-72 159.5,-72 165.5,-78 165.5,-84 165.5,-84 165.5,-96 165.5,-96 165.5,-102 159.5,-108 153.5,-108"/>
<text text-anchor="middle" x="134" y="-87.5" font-family="sans" font-size="10.00">train_fold</text>
</g>
<!-- 1&#45;&gt;0 -->
<g id="edge1" class="edge">
<title>1&#45;&gt;0</title>
<path fill="none" stroke="grey" stroke-width="2" d="M134,-71.7C134,-63.98 134,-54.71 134,-46.11"/>
<polygon fill="grey" stroke="grey" stroke-width="2" points="137.5,-46.1 134,-36.1 130.5,-46.1 137.5,-46.1"/>
</g>
<!-- 2 -->
<g id="node3" class="node">
<title>2</title>
<path fill="none" stroke="#59d856" stroke-width="2" d="M170,-180C170,-180 98,-180 98,-180 92,-180 86,-174 86,-168 86,-168 86,-156 86,-156 86,-150 92,-144 98,-144 98,-144 170,-144 170,-144 176,-144 182,-150 182,-156 182,-156 182,-168 182,-168 182,-174 176,-180 170,-180"/>
<text text-anchor="middle" x="134" y="-159.5" font-family="sans" font-size="10.00">plan_preprocess</text>
</g>
<!-- 2&#45;&gt;1 -->
<g id="edge2" class="edge">
<title>2&#45;&gt;1</title>
<path fill="none" stroke="grey" stroke-width="2" d="M134,-143.7C134,-135.98 134,-126.71 134,-118.11"/>
<polygon fill="grey" stroke="grey" stroke-width="2" points="137.5,-118.1 134,-108.1 130.5,-118.1 137.5,-118.1"/>
</g>
<!-- 3 -->
<g id="node4" class="node">
<title>3</title>
<path fill="none" stroke="#80d856" stroke-width="2" d="M179.5,-252C179.5,-252 88.5,-252 88.5,-252 82.5,-252 76.5,-246 76.5,-240 76.5,-240 76.5,-228 76.5,-228 76.5,-222 82.5,-216 88.5,-216 88.5,-216 179.5,-216 179.5,-216 185.5,-216 191.5,-222 191.5,-228 191.5,-228 191.5,-240 191.5,-240 191.5,-246 185.5,-252 179.5,-252"/>
<text text-anchor="middle" x="134" y="-231.5" font-family="sans" font-size="10.00">create_dataset_json</text>
</g>
<!-- 3&#45;&gt;2 -->
<g id="edge3" class="edge">
<title>3&#45;&gt;2</title>
<path fill="none" stroke="grey" stroke-width="2" d="M134,-215.7C134,-207.98 134,-198.71 134,-190.11"/>
<polygon fill="grey" stroke="grey" stroke-width="2" points="137.5,-190.1 134,-180.1 130.5,-190.1 137.5,-190.1"/>
</g>
<!-- 4 -->
<g id="node5" class="node">
<title>4</title>
<path fill="none" stroke="#56d8d8" stroke-width="2" d="M114.5,-324C114.5,-324 43.5,-324 43.5,-324 37.5,-324 31.5,-318 31.5,-312 31.5,-312 31.5,-300 31.5,-300 31.5,-294 37.5,-288 43.5,-288 43.5,-288 114.5,-288 114.5,-288 120.5,-288 126.5,-294 126.5,-300 126.5,-300 126.5,-312 126.5,-312 126.5,-318 120.5,-324 114.5,-324"/>
<text text-anchor="middle" x="79" y="-303.5" font-family="sans" font-size="10.00">cp_training_img</text>
</g>
<!-- 4&#45;&gt;3 -->
<g id="edge4" class="edge">
<title>4&#45;&gt;3</title>
<path fill="none" stroke="grey" stroke-width="2" d="M92.6,-287.7C99.12,-279.39 107.07,-269.28 114.25,-260.14"/>
<polygon fill="grey" stroke="grey" stroke-width="2" points="117.13,-262.13 120.56,-252.1 111.63,-257.81 117.13,-262.13"/>
</g>
<!-- 5 -->
<g id="node6" class="node">
<title>5</title>
<path fill="none" stroke="#5682d8" stroke-width="2" d="M112,-396C112,-396 12,-396 12,-396 6,-396 0,-390 0,-384 0,-384 0,-372 0,-372 0,-366 6,-360 12,-360 12,-360 112,-360 112,-360 118,-360 124,-366 124,-372 124,-372 124,-384 124,-384 124,-390 118,-396 112,-396"/>
<text text-anchor="middle" x="62" y="-375.5" font-family="sans" font-size="10.00">split_cleanorient_bold</text>
</g>
<!-- 5&#45;&gt;4 -->
<g id="edge6" class="edge">
<title>5&#45;&gt;4</title>
<path fill="none" stroke="grey" stroke-width="2" d="M66.2,-359.7C68.1,-351.9 70.38,-342.51 72.48,-333.83"/>
<polygon fill="grey" stroke="grey" stroke-width="2" points="75.89,-334.65 74.85,-324.1 69.08,-333 75.89,-334.65"/>
</g>
<!-- 6 -->
<g id="node7" class="node">
<title>6</title>
<path fill="none" stroke="#d88556" stroke-width="2" d="M99,-468C99,-468 25,-468 25,-468 19,-468 13,-462 13,-456 13,-456 13,-444 13,-444 13,-438 19,-432 25,-432 25,-432 99,-432 99,-432 105,-432 111,-438 111,-444 111,-444 111,-456 111,-456 111,-462 105,-468 99,-468"/>
<text text-anchor="middle" x="62" y="-447.5" font-family="sans" font-size="10.00">cleanorient_bold</text>
</g>
<!-- 6&#45;&gt;5 -->
<g id="edge7" class="edge">
<title>6&#45;&gt;5</title>
<path fill="none" stroke="grey" stroke-width="2" d="M62,-431.7C62,-423.98 62,-414.71 62,-406.11"/>
<polygon fill="grey" stroke="grey" stroke-width="2" points="65.5,-406.1 62,-396.1 58.5,-406.1 65.5,-406.1"/>
</g>
<!-- 7 -->
<g id="node8" class="node">
<title>7</title>
<path fill="none" stroke="#56a9d8" stroke-width="2" d="M230,-324C230,-324 166,-324 166,-324 160,-324 154,-318 154,-312 154,-312 154,-300 154,-300 154,-294 160,-288 166,-288 166,-288 230,-288 230,-288 236,-288 242,-294 242,-300 242,-300 242,-312 242,-312 242,-318 236,-324 230,-324"/>
<text text-anchor="middle" x="198" y="-303.5" font-family="sans" font-size="10.00">cp_training_lbl</text>
</g>
<!-- 7&#45;&gt;3 -->
<g id="edge5" class="edge">
<title>7&#45;&gt;3</title>
<path fill="none" stroke="grey" stroke-width="2" d="M182.18,-287.7C174.43,-279.22 164.96,-268.86 156.48,-259.58"/>
<polygon fill="grey" stroke="grey" stroke-width="2" points="158.97,-257.12 149.64,-252.1 153.8,-261.85 158.97,-257.12"/>
</g>
<!-- 8 -->
<g id="node9" class="node">
<title>8</title>
<path fill="none" stroke="#afd856" stroke-width="2" d="M260,-396C260,-396 154,-396 154,-396 148,-396 142,-390 142,-384 142,-384 142,-372 142,-372 142,-366 148,-360 154,-360 154,-360 260,-360 260,-360 266,-360 272,-366 272,-372 272,-372 272,-384 272,-384 272,-390 266,-396 260,-396"/>
<text text-anchor="middle" x="207" y="-375.5" font-family="sans" font-size="10.00">split_cleanorient_mask</text>
</g>
<!-- 8&#45;&gt;7 -->
<g id="edge8" class="edge">
<title>8&#45;&gt;7</title>
<path fill="none" stroke="grey" stroke-width="2" d="M204.78,-359.7C203.78,-351.98 202.59,-342.71 201.49,-334.11"/>
<polygon fill="grey" stroke="grey" stroke-width="2" points="204.95,-333.58 200.2,-324.1 198,-334.47 204.95,-333.58"/>
</g>
<!-- 9 -->
<g id="node10" class="node">
<title>9</title>
<path fill="none" stroke="#56d8a9" stroke-width="2" d="M247,-468C247,-468 167,-468 167,-468 161,-468 155,-462 155,-456 155,-456 155,-444 155,-444 155,-438 161,-432 167,-432 167,-432 247,-432 247,-432 253,-432 259,-438 259,-444 259,-444 259,-456 259,-456 259,-462 253,-468 247,-468"/>
<text text-anchor="middle" x="207" y="-447.5" font-family="sans" font-size="10.00">cleanorient_mask</text>
</g>
<!-- 9&#45;&gt;8 -->
<g id="edge9" class="edge">
<title>9&#45;&gt;8</title>
<path fill="none" stroke="grey" stroke-width="2" d="M207,-431.7C207,-423.98 207,-414.71 207,-406.11"/>
<polygon fill="grey" stroke="grey" stroke-width="2" points="210.5,-406.1 207,-396.1 203.5,-406.1 210.5,-406.1"/>
</g>
</g>
</svg>
