<?xml version="1.0" encoding="UTF-8" standalone="no"?>
<!DOCTYPE svg PUBLIC "-//W3C//DTD SVG 1.1//EN"
 "http://www.w3.org/Graphics/SVG/1.1/DTD/svg11.dtd">
<!-- Generated by graphviz version 2.43.0 (0)
 -->
<!-- Title: snakemake_dag Pages: 1 -->
<svg width="1364pt" height="886pt"
 viewBox="0.00 0.00 1364.00 886.00" xmlns="http://www.w3.org/2000/svg" xmlns:xlink="http://www.w3.org/1999/xlink">
<g id="graph0" class="graph" transform="scale(1 1) rotate(0) translate(4 882)">
<title>snakemake_dag</title>
<polygon fill="white" stroke="transparent" points="-4,4 -4,-882 1360,-882 1360,4 -4,4"/>
<!-- 0 -->
<g id="node1" class="node">
<title>0</title>
<text text-anchor="start" x="671.5" y="-71.6" font-family="sans" font-weight="bold" font-size="18.00">all_test</text>
<text text-anchor="start" x="476.5" y="-47.8" font-family="sans" font-size="10.00"> </text>
<text text-anchor="start" x="480.5" y="-47.8" font-family="sans" font-weight="bold" font-size="14.00">↪ input</text>
<text text-anchor="start" x="538.5" y="-47.8" font-family="sans" font-size="10.00"> </text>
<text text-anchor="start" x="476.5" y="-28" font-family="monospace" font-size="10.00">results/sub&#45;2006/ses&#45;T1/func/sub&#45;2006_ses&#45;T1_task&#45;rest_desc&#45;brain_mask.nii.gz</text>
<text text-anchor="start" x="932.5" y="-10" font-family="sans" font-size="10.00"> &#160;</text>
<polygon fill="#d9d957" stroke="#d9d957" points="470.5,-62 470.5,-62 946.5,-62 946.5,-62 470.5,-62"/>
<polygon fill="#d9d957" stroke="#d9d957" points="470.5,-22 470.5,-22 946.5,-22 946.5,-22 470.5,-22"/>
<polygon fill="none" stroke="#d9d957" stroke-width="2" points="470,-1 470,-91 945,-91 945,-1 470,-1"/>
</g>
<!-- 1 -->
<g id="node2" class="node">
<title>1</title>
<text text-anchor="start" x="653.5" y="-239.6" font-family="sans" font-weight="bold" font-size="18.00">unconform</text>
<text text-anchor="start" x="329.5" y="-215.8" font-family="sans" font-size="10.00"> </text>
<text text-anchor="start" x="333.5" y="-215.8" font-family="sans" font-weight="bold" font-size="14.00">↪ input</text>
<text text-anchor="start" x="391.5" y="-215.8" font-family="sans" font-size="10.00"> </text>
<text text-anchor="start" x="329.5" y="-196" font-family="monospace" font-size="10.00">/localscratch/funcmasker&#45;flex/.tests/bids/sub&#45;{subject}/ses&#45;{session}/func/sub&#45;{subject}_ses&#45;{session}_task&#45;{task}_bold.nii.gz</text>
<text text-anchor="start" x="329.5" y="-178" font-family="monospace" font-size="10.00">results/sub&#45;{subject}/ses&#45;{session}/func/sub&#45;{subject}_ses&#45;{session}_task&#45;{task}_desc&#45;conform_mask.nii.gz</text>
<text text-anchor="start" x="1008.5" y="-157.8" font-family="sans" font-size="10.00"> </text>
<text text-anchor="start" x="1012.5" y="-157.8" font-family="sans" font-weight="bold" font-size="14.00">output →</text>
<text text-anchor="start" x="1082.5" y="-157.8" font-family="sans" font-size="10.00"> </text>
<text text-anchor="start" x="329.5" y="-138" font-family="monospace" font-size="10.00">results/sub&#45;{subject}/ses&#45;{session}/func/sub&#45;{subject}_ses&#45;{session}_task&#45;{task}_desc&#45;brain_mask.nii.gz</text>
<polygon fill="#5798d9" stroke="#5798d9" points="323.5,-230 323.5,-230 1093.5,-230 1093.5,-230 323.5,-230"/>
<polygon fill="#5798d9" stroke="#5798d9" points="323.5,-172 323.5,-172 1093.5,-172 1093.5,-172 323.5,-172"/>
<polygon fill="none" stroke="#5798d9" stroke-width="2" points="323,-129 323,-259 1092,-259 1092,-129 323,-129"/>
</g>
<!-- 1&#45;&gt;0 -->
<g id="edge1" class="edge">
<title>1&#45;&gt;0</title>
<path fill="none" stroke="grey" stroke-width="2" d="M707.5,-127.69C707.5,-119.25 707.5,-110.68 707.5,-102.42"/>
<polygon fill="grey" stroke="grey" stroke-width="2" points="711,-102.17 707.5,-92.17 704,-102.17 711,-102.17"/>
</g>
<!-- 2 -->
<g id="node3" class="node">
<title>2</title>
<text text-anchor="start" x="644.5" y="-389.6" font-family="sans" font-weight="bold" font-size="18.00">merge_mask</text>
<text text-anchor="start" x="392.5" y="-365.8" font-family="sans" font-size="10.00"> </text>
<text text-anchor="start" x="396.5" y="-365.8" font-family="sans" font-weight="bold" font-size="14.00">↪ input</text>
<text text-anchor="start" x="454.5" y="-365.8" font-family="sans" font-size="10.00"> </text>
<text text-anchor="start" x="392.5" y="-346" font-family="monospace" font-size="10.00">results/sub&#45;{subject}/ses&#45;{session}/func/sub&#45;{subject}_ses&#45;{session}_task&#45;{task}_desc&#45;brain_mask</text>
<text text-anchor="start" x="945.5" y="-325.8" font-family="sans" font-size="10.00"> </text>
<text text-anchor="start" x="949.5" y="-325.8" font-family="sans" font-weight="bold" font-size="14.00">output →</text>
<text text-anchor="start" x="1019.5" y="-325.8" font-family="sans" font-size="10.00"> </text>
<text text-anchor="start" x="392.5" y="-306" font-family="monospace" font-size="10.00">results/sub&#45;{subject}/ses&#45;{session}/func/sub&#45;{subject}_ses&#45;{session}_task&#45;{task}_desc&#45;conform_mask.nii.gz</text>
<polygon fill="#57d957" stroke="#57d957" points="386.5,-380 386.5,-380 1030.5,-380 1030.5,-380 386.5,-380"/>
<polygon fill="#57d957" stroke="#57d957" points="386.5,-340 386.5,-340 1030.5,-340 1030.5,-340 386.5,-340"/>
<polygon fill="none" stroke="#57d957" stroke-width="2" points="386,-297 386,-409 1029,-409 1029,-297 386,-297"/>
</g>
<!-- 2&#45;&gt;1 -->
<g id="edge2" class="edge">
<title>2&#45;&gt;1</title>
<path fill="none" stroke="grey" stroke-width="2" d="M707.5,-295.76C707.5,-287.48 707.5,-278.83 707.5,-270.24"/>
<polygon fill="grey" stroke="grey" stroke-width="2" points="711,-270.2 707.5,-260.2 704,-270.2 711,-270.2"/>
</g>
<!-- 3 -->
<g id="node4" class="node">
<title>3</title>
<text text-anchor="start" x="638.5" y="-557.6" font-family="sans" font-weight="bold" font-size="18.00">run_inference</text>
<text text-anchor="start" x="389.5" y="-533.8" font-family="sans" font-size="10.00"> </text>
<text text-anchor="start" x="393.5" y="-533.8" font-family="sans" font-weight="bold" font-size="14.00">↪ input</text>
<text text-anchor="start" x="451.5" y="-533.8" font-family="sans" font-size="10.00"> </text>
<text text-anchor="start" x="389.5" y="-514" font-family="monospace" font-size="10.00">resources/trained_model.3d_fullres.Task104_fetal_brain_bold_trainRutherford.nnUNetTrainerV2.model_best.tar</text>
<text text-anchor="start" x="389.5" y="-496" font-family="monospace" font-size="10.00">results/sub&#45;{subject}/ses&#45;{session}/func/sub&#45;{subject}_ses&#45;{session}_task&#45;{task}_desc&#45;conform_bold</text>
<text text-anchor="start" x="948.5" y="-475.8" font-family="sans" font-size="10.00"> </text>
<text text-anchor="start" x="952.5" y="-475.8" font-family="sans" font-weight="bold" font-size="14.00">output →</text>
<text text-anchor="start" x="1022.5" y="-475.8" font-family="sans" font-size="10.00"> </text>
<text text-anchor="start" x="389.5" y="-456" font-family="monospace" font-size="10.00">results/sub&#45;{subject}/ses&#45;{session}/func/sub&#45;{subject}_ses&#45;{session}_task&#45;{task}_desc&#45;brain_mask</text>
<polygon fill="#98d957" stroke="#98d957" points="383.5,-548 383.5,-548 1033.5,-548 1033.5,-548 383.5,-548"/>
<polygon fill="#98d957" stroke="#98d957" points="383.5,-490 383.5,-490 1033.5,-490 1033.5,-490 383.5,-490"/>
<polygon fill="none" stroke="#98d957" stroke-width="2" points="383,-447 383,-577 1032,-577 1032,-447 383,-447"/>
</g>
<!-- 3&#45;&gt;2 -->
<g id="edge3" class="edge">
<title>3&#45;&gt;2</title>
<path fill="none" stroke="grey" stroke-width="2" d="M707.5,-445.78C707.5,-437.4 707.5,-428.8 707.5,-420.4"/>
<polygon fill="grey" stroke="grey" stroke-width="2" points="711,-420.27 707.5,-410.27 704,-420.27 711,-420.27"/>
</g>
<!-- 4 -->
<g id="node5" class="node">
<title>4</title>
<text text-anchor="start" x="344.5" y="-707.6" font-family="sans" font-weight="bold" font-size="18.00">conform</text>
<text text-anchor="start" x="91.5" y="-683.8" font-family="sans" font-size="10.00"> </text>
<text text-anchor="start" x="95.5" y="-683.8" font-family="sans" font-weight="bold" font-size="14.00">↪ input</text>
<text text-anchor="start" x="153.5" y="-683.8" font-family="sans" font-size="10.00"> </text>
<text text-anchor="start" x="91.5" y="-664" font-family="monospace" font-size="10.00">results/sub&#45;{subject}/ses&#45;{session}/func/sub&#45;{subject}_ses&#45;{session}_task&#45;{task}_desc&#45;split_bold</text>
<text text-anchor="start" x="602.5" y="-643.8" font-family="sans" font-size="10.00"> </text>
<text text-anchor="start" x="606.5" y="-643.8" font-family="sans" font-weight="bold" font-size="14.00">output →</text>
<text text-anchor="start" x="676.5" y="-643.8" font-family="sans" font-size="10.00"> </text>
<text text-anchor="start" x="91.5" y="-624" font-family="monospace" font-size="10.00">results/sub&#45;{subject}/ses&#45;{session}/func/sub&#45;{subject}_ses&#45;{session}_task&#45;{task}_desc&#45;conform_bold</text>
<polygon fill="#d99857" stroke="#d99857" points="85.5,-698 85.5,-698 687.5,-698 687.5,-698 85.5,-698"/>
<polygon fill="#d99857" stroke="#d99857" points="85.5,-658 85.5,-658 687.5,-658 687.5,-658 85.5,-658"/>
<polygon fill="none" stroke="#d99857" stroke-width="2" points="85,-615 85,-727 686,-727 686,-615 85,-615"/>
</g>
<!-- 4&#45;&gt;3 -->
<g id="edge5" class="edge">
<title>4&#45;&gt;3</title>
<path fill="none" stroke="grey" stroke-width="2" d="M500.39,-613.98C521.25,-603.81 543.24,-593.09 564.78,-582.59"/>
<polygon fill="grey" stroke="grey" stroke-width="2" points="566.53,-585.63 573.98,-578.1 563.46,-579.34 566.53,-585.63"/>
</g>
<!-- 5 -->
<g id="node6" class="node">
<title>5</title>
<text text-anchor="start" x="364" y="-857.6" font-family="sans" font-weight="bold" font-size="18.00">split</text>
<text text-anchor="start" x="7.5" y="-833.8" font-family="sans" font-size="10.00"> </text>
<text text-anchor="start" x="11.5" y="-833.8" font-family="sans" font-weight="bold" font-size="14.00">↪ input</text>
<text text-anchor="start" x="69.5" y="-833.8" font-family="sans" font-size="10.00"> </text>
<text text-anchor="start" x="7.5" y="-814" font-family="monospace" font-size="10.00">/localscratch/funcmasker&#45;flex/.tests/bids/sub&#45;{subject}/ses&#45;{session}/func/sub&#45;{subject}_ses&#45;{session}_task&#45;{task}_bold.nii.gz</text>
<text text-anchor="start" x="686.5" y="-793.8" font-family="sans" font-size="10.00"> </text>
<text text-anchor="start" x="690.5" y="-793.8" font-family="sans" font-weight="bold" font-size="14.00">output →</text>
<text text-anchor="start" x="760.5" y="-793.8" font-family="sans" font-size="10.00"> </text>
<text text-anchor="start" x="7.5" y="-774" font-family="monospace" font-size="10.00">results/sub&#45;{subject}/ses&#45;{session}/func/sub&#45;{subject}_ses&#45;{session}_task&#45;{task}_desc&#45;split_bold</text>
<polygon fill="#57d9d9" stroke="#57d9d9" points="1.5,-848 1.5,-848 771.5,-848 771.5,-848 1.5,-848"/>
<polygon fill="#57d9d9" stroke="#57d9d9" points="1.5,-808 1.5,-808 771.5,-808 771.5,-808 1.5,-808"/>
<polygon fill="none" stroke="#57d9d9" stroke-width="2" points="1,-765 1,-877 770,-877 770,-765 1,-765"/>
</g>
<!-- 5&#45;&gt;4 -->
<g id="edge6" class="edge">
<title>5&#45;&gt;4</title>
<path fill="none" stroke="grey" stroke-width="2" d="M385.5,-763.63C385.5,-755.38 385.5,-746.82 385.5,-738.4"/>
<polygon fill="grey" stroke="grey" stroke-width="2" points="389,-738.22 385.5,-728.22 382,-738.22 389,-738.22"/>
</g>
<!-- 6 -->
<g id="node7" class="node">
<title>6</title>
<text text-anchor="start" x="947" y="-696.6" font-family="sans" font-weight="bold" font-size="18.00">download_model</text>
<text text-anchor="start" x="712.5" y="-675" font-family="sans" font-size="10.00"> &#160;</text>
<text text-anchor="start" x="1271.5" y="-654.8" font-family="sans" font-size="10.00"> </text>
<text text-anchor="start" x="1275.5" y="-654.8" font-family="sans" font-weight="bold" font-size="14.00">output →</text>
<text text-anchor="start" x="1345.5" y="-654.8" font-family="sans" font-size="10.00"> </text>
<text text-anchor="start" x="712.5" y="-635" font-family="monospace" font-size="10.00">resources/trained_model.3d_fullres.Task104_fetal_brain_bold_trainRutherford.nnUNetTrainerV2.model_best.tar</text>
<polygon fill="#d95757" stroke="#d95757" points="706.5,-687 706.5,-687 1356.5,-687 1356.5,-687 706.5,-687"/>
<polygon fill="#d95757" stroke="#d95757" points="706.5,-669 706.5,-669 1356.5,-669 1356.5,-669 706.5,-669"/>
<polygon fill="none" stroke="#d95757" stroke-width="2" points="706,-626 706,-716 1355,-716 1355,-626 706,-626"/>
</g>
<!-- 6&#45;&gt;3 -->
<g id="edge4" class="edge">
<title>6&#45;&gt;3</title>
<path fill="none" stroke="grey" stroke-width="2" d="M937.51,-624.8C910.32,-611.58 879.94,-596.82 850.41,-582.46"/>
<polygon fill="grey" stroke="grey" stroke-width="2" points="851.8,-579.25 841.28,-578.02 848.74,-585.54 851.8,-579.25"/>
</g>
</g>
</svg>
